<svg xmlns="http://www.w3.org/2000/svg" version="1.1" xmlns:xlink="http://www.w3.org/1999/xlink" xmlns:svgjs="http://svgjs.dev/svgjs" width="1000" height="816" viewBox="0 0 1000 816"><g transform="matrix(1,0,0,1,-0.6226174701064906,-0.292346456692826)"><svg viewBox="0 0 311 254" data-background-color="#046380" preserveAspectRatio="xMidYMid meet" height="816" width="1000" xmlns="http://www.w3.org/2000/svg" xmlns:xlink="http://www.w3.org/1999/xlink"><g id="tight-bounds" transform="matrix(1,0,0,1,0.193634033203125,0.09131469726563068)"><svg viewBox="0 0 310.61273193359375 253.8173828125" height="253.8173828125" width="310.61273193359375"><g><svg></svg></g><g><svg viewBox="0 0 310.61273193359375 253.8173828125" height="253.8173828125" width="310.61273193359375"><g transform="matrix(1,0,0,1,-42.45362854003906,3.308685302734375)"><path xmlns="http://www.w3.org/2000/svg" d="M42.454 250.509v-253.818h310.612v253.818zM337.461 234.904v-222.608h-279.402v222.608zM324.543 247.2v-12.195h-253.566v12.195z" fill="#ffffff" fill-rule="nonzero" stroke="none" stroke-width="1" stroke-linecap="butt" stroke-linejoin="miter" stroke-miterlimit="10" stroke-dasharray="" stroke-dashoffset="0" font-family="none" font-weight="none" font-size="none" text-anchor="none" style="mix-blend-mode: normal" data-fill-palette-color="tertiary"></path><g><path xmlns="http://www.w3.org/2000/svg" d="M117.792 247.005v-11.202h9.053v2.686h-5.455v1.922h4.69v2.572h-4.69v4.022zM132.25 238.212c1.313 0 2.383 0.219 3.208 0.658 0.825 0.441 1.237 1.155 1.237 2.143v0 3.354c0 0.185 0.043 0.336 0.13 0.456 0.087 0.119 0.217 0.179 0.391 0.179v0h0.586v1.872c-0.033 0.022-0.116 0.056-0.25 0.105-0.137 0.05-0.33 0.1-0.58 0.149-0.25 0.048-0.537 0.072-0.863 0.072v0c-0.63 0-1.147-0.096-1.553-0.287-0.408-0.189-0.688-0.452-0.84-0.788v0c-0.412 0.326-0.874 0.586-1.384 0.782-0.51 0.195-1.107 0.293-1.791 0.293v0c-2.019 0-3.028-0.803-3.029-2.41v0c0-0.836 0.226-1.474 0.678-1.914 0.449-0.439 1.097-0.739 1.944-0.902 0.847-0.163 1.954-0.244 3.321-0.245v0-0.423c0-0.336-0.116-0.592-0.348-0.765-0.234-0.174-0.536-0.261-0.906-0.261v0c-0.336 0-0.626 0.06-0.869 0.179-0.245 0.119-0.368 0.309-0.368 0.57v0 0.065h-3.191c-0.011-0.054-0.016-0.13-0.016-0.228v0c0-0.814 0.389-1.46 1.165-1.937 0.775-0.478 1.884-0.716 3.328-0.717zM133.455 243.26c-0.923 0-1.603 0.1-2.042 0.299-0.441 0.202-0.661 0.471-0.661 0.808v0c0 0.543 0.369 0.814 1.108 0.814v0c0.423 0 0.796-0.114 1.116-0.342 0.319-0.228 0.479-0.51 0.479-0.847v0zM142.28 239.206c0.619-0.662 1.422-0.993 2.41-0.994v0c1.161 0 2.057 0.377 2.686 1.13 0.63 0.755 0.944 1.871 0.944 3.348v0c0 1.487-0.315 2.611-0.944 3.37-0.63 0.76-1.525 1.14-2.686 1.14v0c-1.194 0-2.106-0.472-2.736-1.417v0l-0.277 1.222h-2.637v-11.805h3.24zM143.68 240.606c-0.478 0-0.836 0.172-1.074 0.514-0.239 0.341-0.358 0.783-0.359 1.326v0 0.537c0 0.543 0.119 0.982 0.359 1.319 0.239 0.336 0.597 0.505 1.074 0.505v0c0.933 0 1.4-0.554 1.4-1.661v0-0.863c0-1.118-0.467-1.677-1.4-1.677zM155.11 238.196c0.25 0 0.472 0.029 0.667 0.088 0.195 0.061 0.293 0.097 0.294 0.108v0 2.719h-1.042c-0.673 0-1.158 0.174-1.456 0.521-0.3 0.347-0.449 0.863-0.449 1.546v0 3.827h-3.241v-8.597h2.654l0.212 1.302c0.195-0.499 0.505-0.877 0.928-1.133 0.423-0.254 0.901-0.381 1.433-0.381zM160.467 237.398h-3.24v-2.198h3.24zM160.467 247.005h-3.24v-8.597h3.24zM165.774 241.697l2.752-3.289h3.777l-3.174 3.468 3.256 5.129h-3.68l-1.807-2.947-1.124 1.091v1.856h-3.24v-11.821h3.24zM177.644 238.212c1.313 0 2.383 0.219 3.207 0.658 0.825 0.441 1.237 1.155 1.238 2.143v0 3.354c0 0.185 0.043 0.336 0.13 0.456 0.087 0.119 0.217 0.179 0.391 0.179v0h0.586v1.872c-0.033 0.022-0.117 0.056-0.254 0.105-0.135 0.05-0.327 0.1-0.576 0.149-0.25 0.048-0.537 0.072-0.863 0.072v0c-0.63 0-1.148-0.096-1.557-0.287-0.406-0.189-0.685-0.452-0.837-0.788v0c-0.412 0.326-0.874 0.586-1.384 0.782-0.51 0.195-1.107 0.293-1.791 0.293v0c-2.019 0-3.028-0.803-3.028-2.41v0c0-0.836 0.225-1.474 0.674-1.914 0.452-0.439 1.101-0.739 1.947-0.902 0.847-0.163 1.954-0.244 3.322-0.245v0-0.423c0-0.336-0.116-0.592-0.349-0.765-0.234-0.174-0.536-0.261-0.905-0.261v0c-0.336 0-0.627 0.06-0.873 0.179-0.243 0.119-0.365 0.309-0.364 0.57v0 0.065h-3.192c-0.011-0.054-0.016-0.13-0.016-0.228v0c0-0.814 0.388-1.46 1.163-1.937 0.777-0.478 1.888-0.716 3.331-0.717zM178.849 243.26c-0.923 0-1.604 0.1-2.045 0.299-0.439 0.202-0.658 0.471-0.658 0.808v0c0 0.543 0.369 0.814 1.107 0.814v0c0.423 0 0.795-0.114 1.114-0.342 0.321-0.228 0.482-0.51 0.482-0.847v0zM189.904 247.005v-11.202h9.053v2.686h-5.455v1.922h4.689v2.572h-4.689v4.022zM209.426 247.005h-2.654l-0.212-1.303c-0.336 0.467-0.779 0.833-1.328 1.097-0.547 0.267-1.125 0.401-1.733 0.401v0c-0.999 0-1.748-0.277-2.247-0.83-0.499-0.554-0.749-1.351-0.749-2.394v0-5.568h3.241v5.177c0 0.369 0.094 0.664 0.283 0.886 0.191 0.224 0.46 0.335 0.807 0.336v0c0.402 0 0.727-0.13 0.977-0.391 0.25-0.261 0.374-0.581 0.375-0.961v0-5.047h3.24zM214.75 247.005h-3.24v-11.805h3.24zM220.318 235.005c0.239 0 0.537 0.029 0.896 0.088 0.358 0.061 0.646 0.129 0.863 0.205v0 1.905h-0.749c-0.347 0-0.586 0.065-0.717 0.195-0.13 0.13-0.195 0.353-0.195 0.668v0 0.342h1.661v2.198h-1.661v6.399h-3.24v-6.399h-1.205v-2.198h1.205v-0.358c0-1.107 0.271-1.892 0.814-2.355 0.543-0.46 1.319-0.69 2.328-0.69zM226.505 237.398h-3.24v-2.198h3.24zM226.505 247.005h-3.24v-8.597h3.24zM231.927 247.005h-3.24v-11.805h3.24zM245.409 238.212c0.977 0 1.71 0.279 2.198 0.837 0.488 0.56 0.733 1.356 0.732 2.387v0 5.569h-3.24v-5.178c0-0.369-0.09-0.665-0.27-0.889-0.178-0.221-0.43-0.332-0.756-0.332v0c-0.38 0-0.689 0.13-0.928 0.391-0.239 0.261-0.358 0.581-0.358 0.96v0 5.048h-3.24v-5.178c0-0.369-0.09-0.665-0.27-0.889-0.178-0.221-0.43-0.332-0.756-0.332v0c-0.38 0-0.689 0.13-0.928 0.391-0.239 0.261-0.358 0.581-0.358 0.96v0 5.048h-3.24v-8.597h2.654l0.212 1.286c0.326-0.456 0.757-0.817 1.292-1.084 0.538-0.265 1.106-0.397 1.704-0.398v0c1.292 0 2.16 0.494 2.605 1.482v0c0.336-0.456 0.767-0.817 1.292-1.084 0.528-0.265 1.079-0.397 1.655-0.398zM254.722 238.212c1.574 0 2.776 0.369 3.605 1.108 0.831 0.738 1.247 1.867 1.247 3.386v0 0.554h-6.448c0 0.619 0.138 1.085 0.414 1.4 0.278 0.315 0.715 0.472 1.312 0.472v0c0.543 0 0.941-0.114 1.195-0.342 0.256-0.228 0.384-0.532 0.384-0.911v0h3.143c0 1.042-0.396 1.856-1.189 2.442-0.792 0.586-1.948 0.879-3.468 0.879v0c-1.596 0-2.833-0.372-3.712-1.117-0.879-0.742-1.319-1.868-1.319-3.377v0c0-1.476 0.429-2.594 1.286-3.354 0.858-0.76 2.041-1.14 3.55-1.14zM254.852 240.28c-1.02 0-1.59 0.483-1.71 1.449v0h3.159c0-0.445-0.128-0.798-0.384-1.058-0.254-0.261-0.609-0.391-1.065-0.391zM267.063 238.212c0.999 0 1.748 0.277 2.247 0.831 0.499 0.554 0.749 1.351 0.749 2.393v0 5.569h-3.24v-5.178c0-0.369-0.096-0.665-0.286-0.889-0.189-0.221-0.457-0.332-0.805-0.332v0c-0.402 0-0.727 0.13-0.977 0.391-0.25 0.261-0.374 0.581-0.374 0.96v0 5.048h-3.24v-8.597h2.654l0.211 1.302c0.336-0.456 0.778-0.82 1.326-1.09 0.549-0.271 1.128-0.407 1.735-0.408zM275.904 238.408h1.824v2.198h-1.824v3.273c0 0.391 0.065 0.675 0.196 0.853 0.13 0.18 0.369 0.27 0.716 0.27v0h0.912v1.905c-0.261 0.087-0.597 0.157-1.01 0.212-0.412 0.054-0.771 0.081-1.074 0.081v0c-0.955 0-1.691-0.174-2.208-0.521-0.514-0.347-0.772-0.939-0.772-1.775v0-4.298h-1.205v-2.198h1.336l0.7-2.605h2.409z" fill="#ffffff" fill-rule="nonzero" stroke="none" stroke-width="1" stroke-linecap="butt" stroke-linejoin="miter" stroke-miterlimit="10" stroke-dasharray="" stroke-dashoffset="0" font-family="none" font-weight="none" font-size="none" text-anchor="none" style="mix-blend-mode: normal" data-fill-palette-color="secondary"></path></g></g><g transform="matrix(1,0,0,1,24.290365966796884,40.388691406250004)"><svg viewBox="0 0 262.032 173.04" height="173.04" width="262.032"><g><svg viewBox="0 0 262.032 173.04" height="173.04" width="262.032"><g><svg viewBox="0 0 262.032 173.04" height="173.04" width="262.032"><g><svg viewBox="0 0 262.032 173.04" height="173.04" width="262.032"><g id="textblocktransform"><svg viewBox="0 0 262.032 173.04" height="173.04" width="262.032" id="textblock"><g><svg viewBox="0 0 262.032 173.04" height="173.04" width="262.032"><g transform="matrix(1,0,0,1,0,0)"><svg width="262.032" viewBox="4.400000095367432 -35 53 35" height="173.04" data-palette-color="#ffffff"><path d="M4.4 0L4.4-35 26.8-35 26.8-28.7 11-28.7 11-20.7 26.5-20.7 26.5-14.4 11-14.4 11 0 4.4 0ZM35 0L35-35 57.4-35 57.4-28.7 41.6-28.7 41.6-20.7 57.1-20.7 57.1-14.4 41.6-14.4 41.6 0 35 0Z" opacity="1" transform="matrix(1,0,0,1,0,0)" fill="#ffffff" class="wordmark-text-0" data-fill-palette-color="primary" id="text-0"></path></svg></g></svg></g></svg></g></svg></g><g></g></svg></g></svg></g></svg></g></svg></g><defs></defs></svg><rect width="310.61273193359375" height="253.8173828125" fill="none" stroke="none" visibility="hidden"></rect></g></svg></g></svg>